<?xml version="1.0" encoding="UTF-8" standalone="no"?>
<!DOCTYPE svg PUBLIC "-//W3C//DTD SVG 1.1//EN"
 "http://www.w3.org/Graphics/SVG/1.1/DTD/svg11.dtd">
<!-- Generated by graphviz version 2.30.1 (20130310.1625)
 -->
<!-- Title: G Pages: 1 -->
<svg width="142pt" height="367pt"
 viewBox="0.00 0.00 142.00 367.00" xmlns="http://www.w3.org/2000/svg" xmlns:xlink="http://www.w3.org/1999/xlink">
<g id="graph0" class="graph" transform="scale(1 1) rotate(0) translate(4 363)">
<title>G</title>
<polygon fill="white" stroke="white" points="-4,5 -4,-363 139,-363 139,5 -4,5"/>
<g id="clust1" class="cluster"><title>cluster_FormBuilder</title>
<path fill="none" stroke="gray" d="M20,-8C20,-8 114,-8 114,-8 120,-8 126,-14 126,-20 126,-20 126,-339 126,-339 126,-345 120,-351 114,-351 114,-351 20,-351 20,-351 14,-351 8,-345 8,-339 8,-339 8,-20 8,-20 8,-14 14,-8 20,-8"/>
<text text-anchor="middle" x="67" y="-336" font-family="Times,serif" font-size="11.00" fill="gray">FormBuilder</text>
</g>
<!-- \\FormBuilder\\FieldOption -->
<g id="node1" class="node"><title>\\FormBuilder\\FieldOption</title>
<g id="a_node1"><a xlink:href="FieldOption.html" xlink:title="FieldOption" target="_parent">
<polygon fill="none" stroke="black" points="111.113,-322 22.8873,-322 22.8873,-286 111.113,-286 111.113,-322"/>
<text text-anchor="middle" x="67" y="-299.6" font-family="Courier,monospace" font-size="11.00">FieldOption</text>
</a>
</g>
</g>
<!-- \\FormBuilder\\Fieldset -->
<g id="node2" class="node"><title>\\FormBuilder\\Fieldset</title>
<g id="a_node2"><a xlink:href="Fieldset.html" xlink:title="Fieldset" target="_parent">
<polygon fill="none" stroke="black" points="101.309,-268 32.6911,-268 32.6911,-232 101.309,-232 101.309,-268"/>
<text text-anchor="middle" x="67" y="-245.6" font-family="Courier,monospace" font-size="11.00">Fieldset</text>
</a>
</g>
</g>
<!-- \\FormBuilder\\FieldsetGroup -->
<g id="node3" class="node"><title>\\FormBuilder\\FieldsetGroup</title>
<g id="a_node3"><a xlink:href="FieldsetGroup.html" xlink:title="FieldsetGroup" target="_parent">
<polygon fill="none" stroke="black" points="117.814,-214 16.1859,-214 16.1859,-178 117.814,-178 117.814,-214"/>
<text text-anchor="middle" x="67" y="-191.6" font-family="Courier,monospace" font-size="11.00">FieldsetGroup</text>
</a>
</g>
</g>
<!-- \\FormBuilder\\FormBuilder -->
<g id="node4" class="node"><title>\\FormBuilder\\FormBuilder</title>
<g id="a_node4"><a xlink:href="FormBuilder.html" xlink:title="FormBuilder" target="_parent">
<polygon fill="none" stroke="black" points="111.113,-160 22.8873,-160 22.8873,-124 111.113,-124 111.113,-160"/>
<text text-anchor="middle" x="67" y="-137.6" font-family="Courier,monospace" font-size="11.00">FormBuilder</text>
</a>
</g>
</g>
<!-- \\FormBuilder\\FormButton -->
<g id="node5" class="node"><title>\\FormBuilder\\FormButton</title>
<g id="a_node5"><a xlink:href="FormButton.html" xlink:title="FormButton" target="_parent">
<polygon fill="none" stroke="black" points="108.011,-106 25.9893,-106 25.9893,-70 108.011,-70 108.011,-106"/>
<text text-anchor="middle" x="67" y="-83.6" font-family="Courier,monospace" font-size="11.00">FormButton</text>
</a>
</g>
</g>
<!-- \\FormBuilder\\FormField -->
<g id="node6" class="node"><title>\\FormBuilder\\FormField</title>
<g id="a_node6"><a xlink:href="FormField.html" xlink:title="FormField" target="_parent">
<polygon fill="none" stroke="black" points="104.911,-52 29.0892,-52 29.0892,-16 104.911,-16 104.911,-52"/>
<text text-anchor="middle" x="67" y="-29.6" font-family="Courier,monospace" font-size="11.00">FormField</text>
</a>
</g>
</g>
</g>
</svg>
